<svg xmlns="http://www.w3.org/2000/svg" xmlns:xlink="http://www.w3.org/1999/xlink" width="290" height="83" viewBox="0 0 290 83">
    <defs>
        <linearGradient id="a" x1="50%" x2="50%" y1="63.99%" y2="104.898%">
            <stop offset="0%" stop-color="#C5E4F6"/>
            <stop offset="100%" stop-color="#FFF"/>
        </linearGradient>
        <path id="b" d="M0 83h96.9V.054H0V83z"/>
        <path id="d" d="M10.992 26.296V.103H.62v26.193h10.372z"/>
    </defs>
    <g fill="none" fill-rule="evenodd">
        <path fill="url(#a)" d="M6 40.066h10.824V81h62.078V39.583H91L48.696 3z"/>
        <g fill="#583B13">
            <path d="M135.153 80.49a14.48 14.48 0 0 0-.366-2.201 14.627 14.627 0 0 0-.732-2.175h.499c2.66 0 3.99-.788 3.99-2.363 0-.411-.151-.85-.45-1.316-.3-.465-.714-.984-1.246-1.557-.355-.394-.698-.774-1.031-1.14a9.632 9.632 0 0 1-.897-1.156 6.115 6.115 0 0 1-.648-1.288 4.478 4.478 0 0 1-.25-1.544 4.2 4.2 0 0 1 .532-2.082c.354-.635.858-1.18 1.513-1.637.653-.457 1.434-.815 2.344-1.074.908-.26 1.916-.39 3.024-.39h.549c.21 0 .46.01.748.027.376.68.708 1.356.997 2.027.287.672.532 1.356.73 2.054-.819-.143-1.484-.214-1.993-.214-.887 0-1.569.152-2.045.456-.476.305-.714.716-.714 1.236 0 .465.183.895.548 1.288.366.394.825.877 1.38 1.45.93.966 1.656 1.876 2.177 2.725.52.851.781 1.777.781 2.78 0 .895-.2 1.714-.598 2.456-.4.743-.976 1.383-1.729 1.92-.753.537-1.673.958-2.759 1.262-1.086.304-2.316.456-3.69.456h-.664zM151.528 73.574l.036-1.45c.007-.353.012-.593.012-.722 0-.832-.024-1.659-.072-2.478a66.912 66.912 0 0 0-.19-2.478l4.162-.174c-.047 1.602-.09 3.177-.13 4.727-.04 1.55-.06 3.093-.06 4.63 0 .577.008 1.263.024 2.057s.04 1.697.072 2.709a51.084 51.084 0 0 0-4.044-.231c.032-.653.06-1.306.083-1.96.024-.653.051-1.306.083-1.96l-1.427.04a82.374 82.374 0 0 0-.143 3.938 27.24 27.24 0 0 0-1.475-.038c-.19 0-.483.006-.88.019-.396.013-.896.032-1.499.058.08-2.076.131-3.91.155-5.506.024-1.594.036-2.955.036-4.082 0-.487-.008-1.08-.023-1.778a25.621 25.621 0 0 0-.192-2.43c.587-.052 1.162-.087 1.726-.106.562-.02 1.121-.029 1.677-.029h.642a154.279 154.279 0 0 1 .047 3.632c0 .397-.023 1.6-.07 3.612h1.45zM163.517 80.05c-.857.102-1.63.178-2.32.23-.69.05-1.312.076-1.867.076-.413 0-.852-.016-1.32-.048-.468-.032-.98-.074-1.534-.125.221-1.088.388-2.161.499-3.218.11-1.057.174-2.117.19-3.18l-1.189-.096a9.33 9.33 0 0 0 1.19-2.19 52.123 52.123 0 0 0-.155-2.479c-.072-.82-.17-1.64-.298-2.46a55.788 55.788 0 0 1 2.023-.182 25.771 25.771 0 0 1 1.83-.067c.445 0 .884.01 1.321.028.436.02.876.042 1.32.068.08.256.14.493.179.711.04.217.06.416.06.595 0 .397-.12.865-.358 1.403a93.152 93.152 0 0 0-1.2-.029 55.925 55.925 0 0 1-1.13-.028c.047.602.07 1.236.07 1.902l2.927-.058c.079.333.146.621.201.865.056.243.084.455.084.633 0 .167-.016.35-.047.548-.032.199-.064.42-.096.663a33.31 33.31 0 0 1-2.997.173 65.642 65.642 0 0 1-.214 3.42h.642a55.68 55.68 0 0 0 2.902-.077 7.664 7.664 0 0 1-.19 1.49 6.41 6.41 0 0 1-.523 1.431M171.866 80.318a232.979 232.979 0 0 0-3.2-.058c-1.102-.012-2.255-.026-3.46-.038.142-1.473.229-2.802.261-3.987.032-1.184.048-2.251.048-3.199 0-1.165-.02-2.3-.06-3.4a34.935 34.935 0 0 0-.274-3.286l3.759-.154c-.016.486-.024.871-.024 1.153v.556c0 .885.016 1.83.048 2.835.031 1.005.048 2.09.048 3.256 0 .423-.01.93-.024 1.518-.016.59-.04 1.269-.072 2.037h2.033c.263 0 .6-.006 1.012-.02.048.526.072.86.072 1 0 .295-.017.59-.048.884-.032.295-.071.596-.119.903M179.834 69.385a45.155 45.155 0 0 0-2.283-.172 204.134 204.134 0 0 0-.202 4.659c-.04 1.313-.06 2.392-.06 3.237 0 .474.012.952.036 1.432.024.48.05.97.083 1.47a437.967 437.967 0 0 1-4.115.23c.016-3.65.134-7.352.357-11.106-.365-.012-.666-.022-.904-.028-.238-.006-.428-.01-.572-.01h-.665v-.845c0-.09-.005-.292-.012-.605-.008-.315-.012-.74-.012-1.278a60.813 60.813 0 0 0 4.877.192 49 49 0 0 0 1.606-.029c.578-.02 1.225-.06 1.938-.125-.032.333-.06.643-.083.932a9.777 9.777 0 0 0-.024 1.326c.008.211.02.451.035.72M187.304 80.05c-.857.102-1.63.178-2.32.23-.69.05-1.312.076-1.867.076-.413 0-.852-.016-1.32-.048-.468-.032-.98-.074-1.534-.125.221-1.088.388-2.161.5-3.218.11-1.057.173-2.117.19-3.18l-1.19-.096a9.33 9.33 0 0 0 1.19-2.19 52.123 52.123 0 0 0-.155-2.479c-.071-.82-.17-1.64-.298-2.46a55.788 55.788 0 0 1 2.023-.182 25.771 25.771 0 0 1 1.83-.067c.445 0 .884.01 1.321.028.436.02.876.042 1.32.068.08.256.14.493.179.711.04.217.06.416.06.595 0 .397-.12.865-.358 1.403a93.152 93.152 0 0 0-1.2-.029 55.925 55.925 0 0 1-1.13-.028c.047.602.07 1.236.07 1.902l2.927-.058c.08.333.146.621.201.865.056.243.084.455.084.633 0 .167-.016.35-.047.548-.032.199-.064.42-.096.663a33.31 33.31 0 0 1-2.997.173 65.642 65.642 0 0 1-.214 3.42h.642a55.68 55.68 0 0 0 2.903-.077 7.664 7.664 0 0 1-.19 1.49 6.41 6.41 0 0 1-.524 1.431M193.203 72.71c.444-.193.749-.459.916-.798.166-.34.25-.785.25-1.336 0-1.037-.27-1.556-.81-1.556-.142 0-.293.039-.451.116.031.652.051 1.271.059 1.854.008.583.02 1.156.036 1.72zm-.452-6.091a9.242 9.242 0 0 1 1.011-.298 4.2 4.2 0 0 1 .94-.106c.475 0 .907.099 1.296.298.388.199.722.477.999.836s.495.79.654 1.297c.158.505.238 1.072.238 1.7 0 1.345-.468 2.357-1.403 3.036a35.964 35.964 0 0 0 2.545 6.456c-1.27.396-2.61.71-4.02.942l-1.404-6.207-.404.25c0 .896-.052 1.774-.155 2.632a32.282 32.282 0 0 1-.416 2.575 28.06 28.06 0 0 0-3.996.404c.269-1.295.471-2.575.606-3.843.135-1.269.202-2.55.202-3.843 0-1-.035-1.988-.106-2.968a34.386 34.386 0 0 0-.346-2.95 15.971 15.971 0 0 0 3.522-1l.237.789zM213.67 70.932c.022-.86.04-1.535.05-2.028.012-.491.017-.827.017-1.007 0-1.163-.033-2.317-.1-3.463a94.028 94.028 0 0 0-.265-3.464l5.817-.241c-.067 2.237-.128 4.439-.183 6.605a252.281 252.281 0 0 0-.083 6.471c0 .805.011 1.763.033 2.873.022 1.11.055 2.372.1 3.786a70.686 70.686 0 0 0-5.651-.323c.045-.913.083-1.825.116-2.738.033-.914.072-1.826.117-2.74l-1.995.055a115.086 115.086 0 0 0-.2 5.504 55.63 55.63 0 0 0-1.08-.04 37.84 37.84 0 0 0-.98-.013c-.266 0-.677.008-1.23.027-.555.017-1.253.043-2.094.08.11-2.9.183-5.464.215-7.693.034-2.228.05-4.13.05-5.706 0-.68-.01-1.507-.032-2.483a36.025 36.025 0 0 0-.266-3.397c.819-.072 1.622-.12 2.409-.148.787-.027 1.568-.04 2.344-.04h.897a198.964 198.964 0 0 1 .066 5.074c0 .556-.032 2.239-.099 5.049h2.028zM225.51 70.212c-.794 0-1.19 1.28-1.19 3.842 0 .987.087 1.727.262 2.22.174.493.42.74.737.74.364 0 .667-.305.904-.913.238-.609.357-1.509.357-2.7 0-2.126-.357-3.19-1.07-3.19m-.167 10.222c-1.46 0-2.625-.566-3.497-1.7-.873-1.134-1.308-2.808-1.308-5.024 0-2.46.452-4.327 1.356-5.602.904-1.274 2.172-1.911 3.806-1.911 1.443 0 2.584.618 3.425 1.854.84 1.236 1.261 3.04 1.261 5.41 0 1.1-.123 2.083-.368 2.948-.247.865-.588 1.595-1.024 2.19a4.44 4.44 0 0 1-1.581 1.365c-.619.313-1.309.47-2.07.47M240.519 80.549a19.953 19.953 0 0 1-.654-2.882 44.358 44.358 0 0 1-.393-3.536 27.299 27.299 0 0 0-.618 2.94c-.143.948-.23 1.883-.262 2.805l-2.403.269c-.126-.961-.289-1.937-.487-2.93a62.043 62.043 0 0 0-.701-3.084 56.418 56.418 0 0 0-.25 2.805 40.5 40.5 0 0 0-.084 2.537v.807a61.55 61.55 0 0 0-1.938-.23 45.01 45.01 0 0 0-1.892-.155 37.597 37.597 0 0 0 1.166-9.319c0-.538-.016-1.127-.047-1.767-.033-.64-.08-1.339-.143-2.095a31.595 31.595 0 0 1 1.724-.326c.563-.09 1.138-.16 1.725-.211.397 1.23.761 2.58 1.094 4.053.333 1.474.61 3.1.833 4.881.46-1.69.84-3.263 1.142-4.717a39.32 39.32 0 0 0 .642-4.102c1.126.166 2.26.25 3.402.25h.356c-.127.793-.222 1.559-.285 2.296a22.552 22.552 0 0 0 .298 6.283c.26 1.402.638 2.86 1.129 4.37-.586.142-1.158.299-1.713.472-.555.173-1.102.368-1.641.586M251.176 80.05c-.857.102-1.63.178-2.32.23-.69.05-1.312.076-1.867.076-.412 0-.852-.016-1.32-.048-.468-.032-.98-.074-1.534-.125.221-1.088.388-2.161.5-3.218.11-1.057.173-2.117.19-3.18l-1.19-.096c.523-.73.92-1.46 1.19-2.19a52.123 52.123 0 0 0-.155-2.479c-.071-.82-.17-1.64-.297-2.46a55.789 55.789 0 0 1 2.022-.182 25.771 25.771 0 0 1 1.831-.067c.444 0 .883.01 1.32.028.436.02.876.042 1.32.068.08.256.14.493.179.711.04.217.06.416.06.595 0 .397-.12.865-.358 1.403a93.152 93.152 0 0 0-1.2-.029 55.925 55.925 0 0 1-1.13-.028c.047.602.07 1.236.07 1.902l2.927-.058c.08.333.146.621.202.865.055.243.083.455.083.633 0 .167-.016.35-.047.548-.032.199-.064.42-.096.663a33.31 33.31 0 0 1-2.997.173 65.642 65.642 0 0 1-.214 3.42h.642a55.68 55.68 0 0 0 2.903-.077 7.664 7.664 0 0 1-.19 1.49 6.41 6.41 0 0 1-.524 1.431"/>
        </g>
        <g>
            <mask id="c" fill="#fff">
                <use xlink:href="#b"/>
            </mask>
            <path fill="#583B13" d="M81.084 83H34.356v-4.347h42.418V36.788h8.445L48.641 5.775 11.647 37.27h7.185v41.382h4.87V83h-9.18V41.618H0L48.635.054l48.266 41.081H81.084z" mask="url(#c)"/>
        </g>
        <path fill="#583B13" d="M48.952 48.973c.732 2.581-.502 18.303 8.675 28.814l-.085.014c.538.556 1.027 1.56.608 2.243-.42.683-1.195.785-1.734.227l-.024-.025c-1.79-1.949-3.2-4.33-4.306-6.845-1.111-2.517-1.954-5.169-2.625-7.858-.677-2.69-1.172-5.427-1.56-8.176-.379-2.761-.455-5.495-.572-8.331-.027-.65.26-1.19.762-1.21.494-.02.82.473.858 1.107l.003.04z"/>
        <path fill="#9EC54D" d="M10.858 46.12s11.463-7.02 26.59-1.155C51.498 50.411 48.84 64.667 48.84 64.667l-5.171-6.623 4.6 7.86s-15.44 4.837-24.293-8.078C19.18 50.83 18.981 46.641 10.858 46.12"/>
        <path fill="#83A44A" d="M34.402 77.564s3.579-7.324 9.876-7.425c5.079-.081 7.894 3.855 7.894 3.855l-3.471-.595 2.997 1.541s-2.654 4.237-6.715 4.716c-4.816.567-6.679-4.53-10.581-2.092"/>
        <path fill="#9EC54D" d="M47.163 27.575c-7.742 12.796.28 19.776.28 19.776l1.534-5.675.04 6.61s15.786-2.35 16.995-13.683c.887-8.32-.132-15.712 4.753-20.707 0 0-14.855-.778-23.602 13.679z"/>
        <path fill="#83A44A" d="M60.749 20.61S38.433 31.77 47.296 46.429c0 0 2.505-15.093 13.453-25.82M76.383 47.335s-10.938-2.381-19.551 2.091c-7 3.635-5.682 14.277-5.682 14.277l3.282-4.644-2.358 5.813s10.627 2.039 14.893-5.303c3.798-6.537 3.532-9.87 9.416-12.234"/>
        <path fill="#6E8D45" d="M66.752 49.224c-2.082-.49-15.701.4-15.26 13.173 0 0 6.926-10.579 15.26-13.173"/>
        <path fill="#9EC54D" d="M63.918 22.305c0 .007 1.976 7.246-1.763 13.388-1.188 1.95-1.81 2.641-2.676 3.567-3.823 4.09-4.618 5.778-4.035 6.346.993.967 7.25-4.94 8.54-9.37.522-1.795 1.05-3.668 1.191-5.533.31-4.066-1.257-8.398-1.257-8.398"/>
        <path fill="#83A44A" d="M22.02 45.58s11.476-1.432 19.749 4.937c5.558 4.28 6.76 8.521 7.07 14.15-.207.39-7.579-15.316-26.818-19.088"/>
        <path fill="#6E8D45" d="M35.696 76.695s1.983-.823 4.517 1.11c.6.456 2.093 1.635 4.835 1.541 2.016-.068 3.603-2.268 3.603-2.268s-2.509.745-4.377.708c-1.981-.038-3.349-.866-4.043-1.151-2.444-1.004-3.286-.569-4.535.06"/>
        <path fill="#9EC54D" d="M64.67 55.021s-3.443 1.167-5.677 3.309c-2.234 2.142-2.859 4.067-2.859 4.067s2.468-.62 4.805-2.333c2.336-1.714 3.731-5.043 3.731-5.043"/>
        <path fill="#6E8D45" d="M37.175 74.413s5.835-7.79 14.116-.856c0 0-8.168-2.02-14.116.856"/>
        <path fill="#9EC54D" d="M42.716 75.702s1.142-1.152 4.236-1.33c1.915-.109 3.62.426 3.62.426s-1.976 1.206-3.76 1.419c-2.532.301-4.096-.515-4.096-.515"/>
        <path fill="#ADCD64" d="M17.816 46.717c3.787-1.858 8.635 7.39 10.087 9.565 3.675 5.51 8.62 7.373 14.942 8.323-6.865 1.938-13.615-1.49-17.178-7.152-2.109-3.353-4.002-9.09-7.851-10.736"/>
        <path fill="#6E8D45" d="M52.945 64.638c2.12-.111 4.205-.474 6.078-1.238.928-.395 1.804-.882 2.542-1.524.749-.64 1.42-1.406 2.029-2.227 1.23-1.638 2.242-3.536 3.494-5.303a23.74 23.74 0 0 1 2.035-2.543 16.591 16.591 0 0 1 2.432-2.142l.066.073c-.673.84-1.338 1.659-1.92 2.54a41.094 41.094 0 0 0-1.658 2.686c-1.043 1.833-1.986 3.758-3.296 5.559a13.72 13.72 0 0 1-2.312 2.45c-.919.7-1.949 1.221-3.019 1.544-1.068.334-2.166.49-3.256.529-1.09.02-2.175-.047-3.226-.306l.011-.098z"/>
        <path fill="#583B13" d="M122.762 56.95c-1.71.175-3.412.34-5.102.495-1.691.154-3.372.275-5.042.364.204-2.953.356-5.885.459-8.795.101-2.91.153-5.82.153-8.73-1.141-4.274-2.618-8.937-4.43-13.985-1.813-5.047-4.064-10.525-6.753-16.433a42.168 42.168 0 0 0 3.422.132c1.425 0 2.81-.076 4.155-.23a28.751 28.751 0 0 0 4.033-.761c.815 3.174 1.65 6.282 2.505 9.324.856 3.041 1.67 6.083 2.445 9.125.855-2.733 1.65-5.654 2.383-8.761a258.108 258.108 0 0 0 2.139-10.019c1.1.177 2.108.31 3.024.397.916.089 1.72.133 2.414.133 1.1 0 2.811-.2 5.133-.596-.653 1.41-1.864 4.817-3.636 10.216-1.772 5.4-4.165 12.885-7.18 22.451a1990.24 1990.24 0 0 0-.091 8.828c-.022 2.579-.031 4.86-.031 6.844"/>
        <path fill="#583B13" d="M132.311 38.69c-1.088 0-1.631 2.353-1.631 7.06 0 1.812.12 3.172.359 4.077.239.906.576 1.36 1.01 1.36.501 0 .914-.56 1.24-1.678.327-1.117.49-2.771.49-4.96 0-3.906-.49-5.86-1.468-5.86m-.228 18.78c-2.002 0-3.6-1.04-4.796-3.124-1.196-2.082-1.794-5.159-1.794-9.23 0-4.52.62-7.95 1.86-10.291 1.239-2.342 2.978-3.513 5.219-3.513 1.978 0 3.544 1.136 4.698 3.407 1.152 2.272 1.728 5.583 1.728 9.937 0 2.024-.169 3.83-.506 5.42-.337 1.588-.804 2.93-1.402 4.024-.598 1.094-1.322 1.93-2.17 2.506a4.93 4.93 0 0 1-2.837.865M147.707 50.339l-.065-1.183a20.51 20.51 0 0 1-.033-1.182c0-3.507.07-6.366.213-8.579.14-2.212.211-3.812.211-4.8 0-.33-.005-.747-.016-1.254-.011-.506-.027-1.1-.05-1.782.588.047 1.143.088 1.665.123s1.011.053 1.468.053a37.792 37.792 0 0 0 2.38-.07 350.827 350.827 0 0 0-.505 8.207c-.12 2.46-.179 4.69-.179 6.69 0 1.788.049 3.542.146 5.26.098 1.718.267 3.412.506 5.083-.827 0-1.642.023-2.446.07-.805.048-1.598.107-2.381.177l-.196-1.695c-.697 1.037-1.762 1.554-3.197 1.554-3.154 0-4.73-2.754-4.73-8.26 0-3.2.054-5.85.164-7.944.108-2.094.162-3.67.162-4.73a66.023 66.023 0 0 0-.13-4.095c1.979-.094 3.968-.34 5.97-.742-.414 3.696-.691 6.838-.833 9.426-.141 2.59-.211 4.637-.211 6.143 0 2.377.532 3.565 1.598 3.565.065 0 .135-.005.212-.018a1.54 1.54 0 0 1 .212-.017h.065zM165.452 37.172a46.783 46.783 0 0 0-3.132-.319c-.13 3.296-.223 6.149-.277 8.562-.054 2.413-.081 4.395-.081 5.948 0 .87.016 1.747.048 2.63.033.882.07 1.783.114 2.7-.87.07-1.767.141-2.69.212-.925.07-1.909.141-2.952.211.02-6.706.184-13.508.489-20.403a99.295 99.295 0 0 0-1.24-.053 22.618 22.618 0 0 0-.783-.018h-.913v-1.553c0-.164-.006-.535-.017-1.112-.01-.577-.015-1.36-.015-2.348a63.074 63.074 0 0 0 6.687.353c.674 0 1.407-.018 2.202-.053a35.22 35.22 0 0 0 2.658-.23c-.044.613-.082 1.184-.114 1.713a23.662 23.662 0 0 0-.033 2.436c.01.388.027.829.049 1.324M173.965 44.867l.05-2.665c.01-.647.016-1.088.016-1.324 0-1.53-.033-3.048-.099-4.554a162.213 162.213 0 0 0-.26-4.554l5.708-.317a2912.14 2912.14 0 0 0-.18 8.684 447.516 447.516 0 0 0-.08 8.508c0 1.058.01 2.318.032 3.776.021 1.46.054 3.12.098 4.978a52.02 52.02 0 0 0-5.545-.423c.043-1.2.081-2.4.114-3.6.032-1.201.07-2.402.113-3.602l-1.956.07c-.11 2.449-.175 4.86-.196 7.238-.37-.023-.724-.041-1.06-.054a27.252 27.252 0 0 0-.963-.017c-.26 0-.663.012-1.206.035-.544.024-1.23.058-2.055.106a598.215 598.215 0 0 0 .26-17.615c0-.894-.011-1.983-.033-3.266a62.749 62.749 0 0 0-.26-4.466 34.159 34.159 0 0 1 2.365-.194 50.547 50.547 0 0 1 2.3-.052h.88a345.173 345.173 0 0 1 .065 6.672c0 .73-.032 2.942-.097 6.636h1.99zM207.9 43.79c-1.182 0-2.332.022-3.453.066a91.37 91.37 0 0 0-3.391.199c-.122 2.16-.204 4.342-.244 6.546a362.192 362.192 0 0 0-.061 6.745 90.286 90.286 0 0 0-10.45-.992c.448-5.51.784-10.911 1.01-16.201.222-5.29.335-10.536.335-15.739 0-2.116-.071-4.353-.214-6.712a253.454 253.454 0 0 0-.58-7.571c.57 0 1.069.011 1.497.033.427.023.804.033 1.13.033 1.956 0 3.962-.11 6.02-.331 2.055-.22 4.163-.55 6.324-.992.488 2.734.733 4.762.733 6.084 0 .75-.122 1.918-.367 3.505-.816.354-1.63.618-2.444.794-.816.176-1.67.308-2.567.396v10.713c0 1.014-.02 2.425-.06 4.232l7.76-.528v1.256c0 1.19-.092 2.48-.275 3.868a127.232 127.232 0 0 1-.703 4.596M218.286 50.339l-.065-1.183a20.516 20.516 0 0 1-.033-1.182c0-3.507.07-6.366.212-8.579.141-2.212.212-3.812.212-4.8 0-.33-.005-.747-.017-1.254-.01-.506-.027-1.1-.048-1.782.587.047 1.141.088 1.664.123.522.035 1.01.053 1.467.053a37.792 37.792 0 0 0 2.381-.07 354.264 354.264 0 0 0-.505 8.207c-.12 2.46-.18 4.69-.18 6.69 0 1.788.05 3.542.148 5.26.097 1.718.265 3.412.506 5.083-.828 0-1.643.023-2.448.07-.804.048-1.598.107-2.38.177l-.197-1.695c-.696 1.037-1.761 1.554-3.196 1.554-3.154 0-4.73-2.754-4.73-8.26 0-3.2.054-5.85.163-7.944.108-2.094.163-3.67.163-4.73a64.138 64.138 0 0 0-.131-4.095c1.98-.094 3.969-.34 5.97-.742-.413 3.696-.69 6.838-.832 9.426-.142 2.59-.212 4.637-.212 6.143 0 2.377.533 3.565 1.599 3.565.065 0 .135-.005.212-.018.075-.01.146-.017.212-.017h.065zM236.559 37.172a46.824 46.824 0 0 0-3.132-.319c-.13 3.296-.224 6.149-.278 8.562-.054 2.413-.08 4.395-.08 5.948 0 .87.016 1.747.048 2.63.032.882.07 1.783.114 2.7-.87.07-1.767.141-2.691.212-.924.07-1.908.141-2.952.211.022-6.706.185-13.508.49-20.403a99.295 99.295 0 0 0-1.24-.053 22.651 22.651 0 0 0-.783-.018h-.914v-1.553c0-.164-.005-.535-.016-1.112-.011-.577-.016-1.36-.016-2.348a63.074 63.074 0 0 0 6.687.353c.674 0 1.407-.018 2.202-.053a35.22 35.22 0 0 0 2.658-.23c-.043.613-.081 1.184-.113 1.713a23.69 23.69 0 0 0-.033 2.436c.01.388.027.829.049 1.324M245.307 50.339l-.066-1.183a20.516 20.516 0 0 1-.032-1.182c0-3.507.07-6.366.212-8.579.14-2.212.211-3.812.211-4.8 0-.33-.005-.747-.015-1.254-.012-.506-.028-1.1-.05-1.782.587.047 1.143.088 1.664.123.522.035 1.011.053 1.468.053a37.765 37.765 0 0 0 2.38-.07 354.259 354.259 0 0 0-.505 8.207c-.119 2.46-.179 4.69-.179 6.69 0 1.788.05 3.542.147 5.26.098 1.718.266 3.412.506 5.083-.827 0-1.642.023-2.447.07a76.87 76.87 0 0 0-2.381.177l-.196-1.695c-.696 1.037-1.762 1.554-3.196 1.554-3.154 0-4.73-2.754-4.73-8.26 0-3.2.054-5.85.163-7.944.109-2.094.162-3.67.162-4.73a64.468 64.468 0 0 0-.13-4.094 40.014 40.014 0 0 0 5.97-.743c-.414 3.696-.69 6.838-.832 9.426-.141 2.59-.212 4.637-.212 6.143 0 2.377.532 3.565 1.598 3.565.065 0 .136-.005.213-.018.075-.01.146-.017.211-.017h.066zM258.126 43.279c.609-.353 1.027-.842 1.256-1.465.228-.624.342-1.442.342-2.453 0-1.907-.37-2.86-1.11-2.86-.195 0-.401.07-.62.211.044 1.2.071 2.337.083 3.407.01 1.071.027 2.124.049 3.16zm-.62-11.191c.5-.235.963-.418 1.386-.547a4.4 4.4 0 0 1 1.289-.195c.653 0 1.244.183 1.778.548.533.365.989.877 1.37 1.536.38.658.679 1.453.897 2.382.217.93.326 1.971.326 3.124 0 2.472-.641 4.33-1.925 5.578.849 4.001 2.012 7.956 3.491 11.862a31.92 31.92 0 0 1-5.513 1.73l-1.924-11.403-.555.459c0 1.648-.07 3.26-.213 4.836a78.037 78.037 0 0 1-.57 4.73 29.23 29.23 0 0 0-5.48.742c.369-2.377.647-4.73.831-7.06.185-2.33.278-4.684.278-7.061a99.99 99.99 0 0 0-.147-5.454 84.07 84.07 0 0 0-.473-5.419 17.801 17.801 0 0 0 4.828-1.836l.326 1.448zM276.1 56.764a54.168 54.168 0 0 1-3.181.423c-.946.094-1.8.142-2.561.142-.566 0-1.17-.03-1.81-.089a67.91 67.91 0 0 1-2.104-.23c.304-1.999.532-3.971.685-5.912.152-1.942.239-3.89.26-5.843l-1.63-.176a19.623 19.623 0 0 0 1.63-4.024c-.043-1.53-.114-3.048-.212-4.555a91.534 91.534 0 0 0-.407-4.517 57.014 57.014 0 0 1 2.772-.336 26.71 26.71 0 0 1 2.512-.124c.61 0 1.212.018 1.81.053.598.036 1.202.077 1.81.123.11.472.191.907.246 1.307.054.4.081.765.081 1.094 0 .73-.163 1.589-.489 2.577-.566-.023-1.114-.04-1.647-.053-.534-.011-1.05-.03-1.55-.053.065 1.107.098 2.271.098 3.495l4.012-.106c.109.613.201 1.142.278 1.589.076.447.114.836.114 1.165 0 .306-.022.641-.065 1.006-.044.365-.088.77-.13 1.218a34.19 34.19 0 0 1-4.111.317 157.737 157.737 0 0 1-.294 6.284h.881a55.822 55.822 0 0 0 3.98-.141 18.67 18.67 0 0 1-.261 2.736 14.554 14.554 0 0 1-.718 2.63"/>
        <g transform="translate(278.258 31.138)">
            <mask id="e" fill="#fff">
                <use xlink:href="#d"/>
            </mask>
            <path fill="#583B13" d="M1.728 26.296a24.931 24.931 0 0 0-.358-2.894 24.122 24.122 0 0 0-.718-2.86h.49c2.61 0 3.914-1.035 3.914-3.106 0-.542-.147-1.117-.44-1.73-.294-.612-.702-1.294-1.223-2.047-.349-.518-.686-1.019-1.012-1.5-.327-.483-.62-.99-.88-1.518a9.382 9.382 0 0 1-.637-1.696C.7 8.345.62 7.67.62 6.916c0-.989.174-1.9.521-2.736a6.14 6.14 0 0 1 1.484-2.154 6.958 6.958 0 0 1 2.3-1.411C5.817.273 6.806.103 7.894.103h.538c.207 0 .451.012.734.035.37.895.696 1.782.978 2.665.283.883.522 1.783.718 2.7-.804-.188-1.457-.282-1.957-.282-.87 0-1.539.2-2.006.6-.468.4-.701.942-.701 1.625 0 .611.179 1.177.538 1.694.358.518.81 1.154 1.354 1.906.913 1.271 1.625 2.466 2.136 3.583.511 1.118.767 2.337.767 3.654 0 1.177-.196 2.254-.587 3.23a7.087 7.087 0 0 1-1.696 2.523c-.74.707-1.643 1.26-2.708 1.66-1.066.4-2.273.6-3.62.6h-.654z" mask="url(#e)"/>
        </g>
    </g>
</svg>
